<svg width="18" height="22" viewBox="0 0 18 22" fill="none" xmlns="http://www.w3.org/2000/svg">
<path d="M9.00014 0.927734C9.82299 0.92766 10.6145 1.24316 11.2117 1.80926C11.8089 2.37535 12.1663 3.14891 12.2101 3.97059L12.2144 4.14202H16.9287C17.0916 4.14207 17.2484 4.20394 17.3674 4.31514C17.4864 4.42633 17.5588 4.57856 17.5699 4.74106C17.581 4.90356 17.53 5.06421 17.4272 5.19056C17.3244 5.31691 17.1775 5.39953 17.0161 5.42173L16.9287 5.42773H16.021L14.9753 18.3303C14.91 19.1352 14.5442 19.8861 13.9505 20.4335C13.3568 20.981 12.5788 21.2849 11.7713 21.2849H6.229C5.42143 21.2849 4.64344 20.981 4.04977 20.4335C3.4561 19.8861 3.09025 19.1352 3.025 18.3303L1.97843 5.42773H1.07157C0.916222 5.42773 0.766132 5.37147 0.649056 5.26936C0.53198 5.16726 0.455838 5.02621 0.434711 4.87231L0.428711 4.78488C0.428717 4.62953 0.484976 4.47944 0.587083 4.36237C0.689189 4.24529 0.830236 4.16915 0.984139 4.14802L1.07157 4.14202H5.78585C5.78585 3.28954 6.1245 2.47197 6.7273 1.86918C7.33009 1.26638 8.14766 0.927734 9.00014 0.927734ZM14.7319 5.42773H3.26843L4.30643 18.2266C4.34562 18.7095 4.56517 19.16 4.92141 19.4885C5.27764 19.8169 5.74446 19.9992 6.229 19.9992H11.7713C12.2558 19.9992 12.7226 19.8169 13.0789 19.4885C13.4351 19.16 13.6547 18.7095 13.6939 18.2266L14.731 5.42773H14.7319ZM7.07157 8.64202C7.22691 8.64203 7.377 8.69828 7.49408 8.80039C7.61116 8.9025 7.6873 9.04354 7.70843 9.19745L7.71442 9.28488V16.142C7.71438 16.3049 7.6525 16.4617 7.54131 16.5807C7.43011 16.6997 7.27788 16.7721 7.11538 16.7832C6.95289 16.7943 6.79223 16.7433 6.66588 16.6405C6.53953 16.5377 6.45691 16.3908 6.43471 16.2294L6.42871 16.142V9.28488C6.42871 9.11438 6.49644 8.95087 6.617 8.83031C6.73756 8.70975 6.90107 8.64202 7.07157 8.64202ZM10.9287 8.64202C11.0841 8.64203 11.2341 8.69828 11.3512 8.80039C11.4683 8.9025 11.5444 9.04354 11.5656 9.19745L11.5716 9.28488V16.142C11.5715 16.3049 11.5096 16.4617 11.3984 16.5807C11.2873 16.6997 11.135 16.7721 10.9725 16.7832C10.81 16.7943 10.6494 16.7433 10.523 16.6405C10.3967 16.5377 10.3141 16.3908 10.2919 16.2294L10.2859 16.142V9.28488C10.2859 9.11438 10.3536 8.95087 10.4741 8.83031C10.5947 8.70975 10.7582 8.64202 10.9287 8.64202ZM9.00014 2.21345C8.51146 2.21339 8.04098 2.39884 7.68378 2.73234C7.32658 3.06583 7.1093 3.52249 7.07585 4.01002L7.07157 4.14202H10.9287L10.9244 4.01002C10.891 3.52249 10.6737 3.06583 10.3165 2.73234C9.9593 2.39884 9.48882 2.21339 9.00014 2.21345Z" fill="black"/>
</svg>